<?xml version="1.0" encoding="UTF-8"?>
<svg width="704px" height="455px" viewBox="0 0 704 455" version="1.1" xmlns="http://www.w3.org/2000/svg" xmlns:xlink="http://www.w3.org/1999/xlink">
    <!-- Generator: Sketch 43.2 (39069) - http://www.bohemiancoding.com/sketch -->
    <title>Logo</title>
    <desc>Created with Sketch.</desc>
    <defs>
        <radialGradient cx="66.6906857%" cy="24.2244387%" fx="66.6906857%" fy="24.2244387%" r="39.6779316%" gradientTransform="translate(0.666907,0.242244),rotate(132.852245),scale(1.000000,1.216737),translate(-0.666907,-0.242244)" id="radialGradient-1">
            <stop stop-color="#FFFFFF" stop-opacity="0.5" offset="0%"></stop>
            <stop stop-color="#000000" stop-opacity="0.5" offset="100%"></stop>
        </radialGradient>
        <radialGradient cx="66.0705476%" cy="25.4744732%" fx="66.0705476%" fy="25.4744732%" r="78.6037636%" id="radialGradient-2">
            <stop stop-color="#FFFFFF" offset="0%"></stop>
            <stop stop-color="#000000" offset="100%"></stop>
        </radialGradient>
        <circle id="path-3" cx="214.5" cy="279.5" r="98.5"></circle>
        <path d="M161.357329,43.4666307 C161.334272,43.646149 161.288157,44.0780574 161.218985,44.7623184 C161.195928,45.1292322 161.103699,45.3784893 160.942297,45.5100727 C160.82701,45.5326477 160.631025,45.4960575 160.354336,45.400309 C159.593441,45.1370008 158.648101,44.6331821 157.518287,43.8892894 C156.296243,43.1348936 155.466188,42.4542012 155.028097,41.8469587 C154.843638,41.5968224 154.659181,40.9115436 154.474722,39.7912837 C154.22109,38.3161489 153.932876,37.0679586 153.610072,36.0466097 C152.73389,35.8515301 151.454222,35.6996586 149.77103,35.5902033 C148.087838,35.4795611 146.992626,35.4916038 146.485363,35.6270433 C146.139502,36.3940597 145.67836,37.3268149 145.101924,38.4248328 C145.032752,38.6890098 144.957817,38.935734 144.877116,39.1650117 C144.796415,39.3942577 144.594665,39.5353395 144.271861,39.5882244 C144.202689,39.6054206 144.098932,39.59009 143.960587,39.5422353 C143.407209,39.3508165 142.479162,38.773135 141.176417,37.8099392 C139.873672,36.8477641 139.199253,36.2771921 139.153138,36.0974491 C139.060908,35.7789571 139.279951,35.1477248 139.810271,34.2030172 C140.548109,32.8158062 140.974665,31.9565925 141.089952,31.6266888 C140.605746,31.0311779 140.363647,30.5182993 140.363647,30.0877987 C140.363647,29.9852986 140.375175,29.8764637 140.398233,29.7612876 C140.444348,29.5309223 141.147589,29.3284444 142.507977,29.1528696 L146.969567,17.0333358 C147.038739,16.8087687 147.050267,16.3592488 147.004153,15.684817 C146.958038,15.1134482 147.027209,14.7857651 147.211668,14.7016982 C147.326956,14.6362551 147.60364,14.6749455 148.041732,14.8177841 C149.125431,15.1711215 150.670255,15.9227425 152.676251,17.0738012 C154.682247,18.2263688 155.881216,19.0643887 156.273192,19.5869296 C156.411536,21.9356713 156.930321,25.5629662 157.82956,30.4732544 C158.982432,36.5569354 160.158343,40.8895155 161.357329,43.4666307 Z M152.330392,30.9248664 C152.030645,29.5207754 151.846188,28.6005551 151.777016,28.1637666 C151.523384,26.693521 151.350456,25.1990344 151.258227,23.6800188 C150.797078,24.5394436 150.255237,25.7636731 149.632686,27.3520021 C148.964021,29.0056538 148.606636,30.061207 148.560521,30.5200988 C148.998612,30.5030239 150.255223,30.6382429 152.330392,30.9248664 Z" id="path-4"></path>
        <filter x="-27.0%" y="-19.5%" width="172.0%" height="151.9%" filterUnits="objectBoundingBox" id="filter-5">
            <feMorphology radius="1" operator="dilate" in="SourceAlpha" result="shadowSpreadOuter1"></feMorphology>
            <feOffset dx="2" dy="2" in="shadowSpreadOuter1" result="shadowOffsetOuter1"></feOffset>
            <feMorphology radius="1" operator="erode" in="SourceAlpha" result="shadowInner"></feMorphology>
            <feOffset dx="2" dy="2" in="shadowInner" result="shadowInner"></feOffset>
            <feComposite in="shadowOffsetOuter1" in2="shadowInner" operator="out" result="shadowOffsetOuter1"></feComposite>
            <feGaussianBlur stdDeviation="2" in="shadowOffsetOuter1" result="shadowBlurOuter1"></feGaussianBlur>
            <feColorMatrix values="0 0 0 0 0   0 0 0 0 0   0 0 0 0 0  0 0 0 0.5 0" type="matrix" in="shadowBlurOuter1"></feColorMatrix>
        </filter>
        <linearGradient x1="61.5876116%" y1="0%" x2="50%" y2="79.2573736%" id="linearGradient-6">
            <stop stop-color="#FFFFFF" offset="0%"></stop>
            <stop stop-color="#CECECE" offset="100%"></stop>
        </linearGradient>
        <path d="M50.7888737,54.9441125 C50.5265954,56.1772079 50.0769823,56.7324223 49.4400209,56.6101056 C48.5407813,56.4481345 46.8172645,55.5801867 44.2694188,54.0082911 C41.5716999,52.3502415 40.0355219,51.1424618 39.6608387,50.3831412 C39.5484337,50.1246741 39.4922321,49.8724836 39.4922321,49.6265322 C39.4922321,49.4420686 39.5390668,49.1602945 39.6327376,48.7811532 C39.7264084,48.4019476 39.7732431,48.0739456 39.7732431,47.7971858 L39.7732431,26.8558004 C38.0122321,29.0375698 35.7079651,34.5344947 32.8603728,43.3179055 C32.8229045,43.4259242 32.8041706,43.5563628 32.8041706,43.7092309 C32.8041706,44.0149672 32.8697392,44.5291894 33.0008783,45.2520232 C33.1320175,45.975004 33.197586,46.4282936 33.197586,46.6117954 C33.1601177,47.5454823 33.1039161,48.1354896 33.0289794,48.3818535 C32.8416378,48.9211765 32.4482264,49.1361938 31.8487333,49.0269632 C31.4740501,48.9739019 30.8183644,48.7664486 29.8816564,48.40464 C25.010775,46.523235 21.6574108,44.5464696 19.8214632,42.4774402 C19.5217166,42.1505289 19.4093133,41.7294247 19.48425,41.2139834 C19.5591866,40.577528 19.5591866,40.1391075 19.48425,39.8987917 C18.0979222,35.9258551 16.8614862,32.4398193 15.774905,29.4381123 C13.1521227,22.1997764 11.4473398,17.8911998 10.6605051,16.4925278 L10.6605051,34.4082606 C10.6605051,34.7983874 10.8103761,35.3957259 11.1101226,36.2005573 C11.4848058,37.1845673 11.6908785,37.7890671 11.7283468,38.013684 C11.8782201,38.6719593 11.9156878,39.4073335 11.8407512,40.2196341 C11.7658146,41.2120553 11.5035403,41.7414399 11.0539205,41.8077639 C10.8291105,41.8408572 10.3982313,41.7341423 9.76126992,41.4876501 C8.37494213,40.9511672 6.72636085,40.1187878 4.8154766,38.9914358 C2.75471907,37.8074748 1.53701698,36.9352654 1.1623338,36.3739584 C0.974992206,36.0934052 0.881322814,35.8043542 0.881322814,35.5067469 C0.881322814,35.3281825 0.946891388,35.055784 1.0780305,34.689473 C1.20916962,34.3230686 1.27473819,34.0207528 1.27473819,33.7825868 L1.27473819,2.12155118 C1.27473819,1.76430217 1.46207698,1.42155249 1.83676016,1.09307005 C2.21144335,0.764291842 2.64232255,0.61161078 3.12941069,0.63515109 C3.76637211,0.651977792 6.22051016,1.8797604 10.4918985,4.32376373 C14.9506284,6.84120266 17.3110971,8.49633291 17.5733753,9.28415507 C17.6857802,9.5960112 17.7045141,9.96497249 17.6295775,10.3909684 C17.5171725,10.9845785 17.4609709,11.3416989 17.4609709,11.4624306 C17.4609709,11.7340769 17.5171725,11.995745 17.6295775,12.2474729 L25.2168741,31.5190389 C26.265987,29.2047657 28.1768426,24.4171667 30.9494982,17.1308584 C32.3358259,13.381616 33.4598586,11.5643261 34.32163,11.6860972 C34.5839082,11.7177806 34.8836502,11.7933334 35.2208651,11.912778 C35.8578265,12.1383954 36.9256576,12.6546822 38.4243903,13.4621692 C40.0729964,14.3850328 41.2157629,14.9752481 41.8527243,15.2321642 C44.8127215,16.4991519 46.5175044,17.2438232 46.9671243,17.4654434 C48.7281352,18.3700392 49.7210308,19.2346619 49.9458407,20.0589382 C50.0207773,20.302746 50.0582451,20.5487081 50.0582451,20.796812 C50.0582451,21.1069419 49.9645757,21.5153549 49.7772341,22.0219308 C49.5898925,22.5283303 49.4962231,22.920952 49.4962231,23.1999401 L49.4962231,51.6565816 C49.4962231,51.9665684 49.7303966,52.5213095 50.1987506,53.3211796 C50.6671046,54.1215267 50.8638103,54.6626277 50.7888737,54.9441125 Z M88.3881434,68.0281303 C88.3506751,68.3016394 88.2757395,68.9605477 88.1633346,70.0047419 C88.1258663,70.565979 87.9759952,70.9398343 87.713717,71.1262546 C87.5263754,71.1497368 87.2078995,71.0745398 86.7582797,70.9006828 C85.5218251,70.4225759 83.9856471,69.5576234 82.1496995,68.3069915 C80.1638786,67.0319386 78.8150394,65.9086498 78.1031413,64.936476 C77.8033948,64.5357255 77.5036527,63.4691793 77.2039062,61.7372862 C76.7917547,59.4562474 76.3234077,57.5196913 75.7988513,55.9273866 C74.3750552,55.5472909 72.2955947,55.1951079 69.5604074,54.8687485 C66.8252202,54.5392548 65.0455017,54.4521954 64.2211987,54.609446 C63.6591739,55.7440318 62.9098188,57.11907 61.9731108,58.7332709 C61.8607059,59.1284321 61.7389357,59.4964159 61.6077966,59.8372307 C61.4766574,60.177962 61.1488146,60.3722187 60.6242581,60.4199089 C60.5118532,60.4390373 60.3432482,60.4051593 60.1184383,60.3182823 C59.2191987,59.9707742 57.7111215,58.9978906 55.5941615,57.4016237 C53.4772015,55.8080522 52.3812696,54.8735947 52.306333,54.5962246 C52.1564597,54.1037087 52.5124034,53.1682585 53.3741747,51.7879553 C54.5731609,49.7552467 55.2663144,48.4922272 55.453656,48.0023937 C54.6668213,47.0513492 54.2734099,46.2493912 54.2734099,45.5958644 C54.2734099,45.4402628 54.2921437,45.2761472 54.3296121,45.103504 C54.4045487,44.7581833 55.5473153,44.5175435 57.7579461,44.378994 L65.0080295,26.3250605 C65.1204344,25.988469 65.1391683,25.3044337 65.0642317,24.2730774 C64.989295,23.3988091 65.1016983,22.9049843 65.4014448,22.7914306 C65.5887864,22.700775 66.0383995,22.7814948 66.7502976,23.0336283 C68.5113085,23.6573269 71.0216482,24.9249717 74.281392,26.8395892 C77.5411357,28.7581909 79.489459,30.1340888 80.1264204,30.9647982 C80.3512303,34.5730602 81.1942549,40.1717683 82.6555193,47.7725282 C84.5289352,57.2027276 86.4397908,63.9584832 88.3881434,68.0281303 Z M73.71937,47.9803776 C73.2322818,45.8080515 72.9325398,44.3857536 72.8201348,43.712355 C72.4079833,41.4442265 72.1269752,39.1465582 71.9771019,36.8186384 C71.2277355,38.0920724 70.3472432,39.9146367 69.3355986,42.284427 C68.2490174,44.7478227 67.6682672,46.325459 67.5933305,47.0210943 C68.3052286,47.035057 70.3472213,47.3556011 73.71937,47.9803776 Z M124.526156,51.3449659 C124.188941,51.552493 123.308449,51.7939986 121.884653,52.0683136 L103.618939,68.2900585 L114.409761,70.9158026 C114.709507,70.8005964 115.271523,70.7190766 116.095826,70.6709745 C116.845193,70.7576992 117.519612,71.1104895 118.119106,71.7298024 C119.318092,72.9367506 120.310987,74.5917937 121.097822,76.6955809 C121.772252,78.5287292 122.015792,79.8041983 121.828451,80.5206182 C121.678577,81.087022 121.163396,81.4143089 120.28289,81.5021603 C119.402385,81.5894287 118.662396,81.5173414 118.062903,81.2863334 C117.313537,80.9975735 116.208238,80.4081741 114.746974,79.5186759 L98.9541564,75.1810501 C98.3921316,75.0284095 97.6053087,74.966069 96.5936641,74.9935673 C95.5820195,75.0203959 94.9263338,74.9754986 94.6265872,74.8593763 C94.5141823,74.8158305 94.401779,74.7562145 94.289374,74.6805308 C93.577476,74.1156771 92.5658466,72.7451455 91.2544554,70.5712549 C89.793191,68.1191559 89.0625697,66.3666768 89.0625697,65.3104722 C89.0625697,65.1184349 89.0813036,64.9255407 89.1187719,64.7317742 C89.1562403,64.5379954 89.4747162,64.3631453 90.0742093,64.2069533 C90.9734489,63.9719782 91.5354653,63.8006508 91.7602752,63.6935328 L110.981427,47.3447922 L101.820468,45.493205 C101.520722,45.4493205 100.902504,45.4515967 99.9657959,45.4996275 C99.2913662,45.5132044 98.7855515,45.4587001 98.4483366,45.3363189 C97.7739069,45.0593284 96.6592411,43.7049495 95.1043059,41.2765607 C93.5493707,38.852765 92.7906486,37.2641149 92.8281169,36.5070838 C92.8655852,36.0068312 93.2964644,35.7111193 94.1207675,35.6195843 C94.7951972,35.5384714 95.4321491,35.5884351 96.0316422,35.7697117 C96.5187303,36.0075278 97.2493515,36.2999113 98.2235278,36.6468338 L116.770253,40.8964357 C117.032531,40.9566386 117.407209,40.9830075 117.894297,40.9754509 C118.381385,40.9677578 118.79353,41.0235171 119.130745,41.1428328 C120.479605,41.6200957 121.360097,42.1121924 121.772248,42.6193109 C122.1844,43.1266603 122.76515,44.3184697 123.514516,46.1960042 C124.338819,48.2667426 124.750965,49.7472919 124.750965,50.6359963 C124.750965,50.9980611 124.676029,51.2343915 124.526156,51.3449659 Z M151.671817,88.7938995 C151.559412,89.322209 151.231569,89.8100842 150.688279,90.2572082 C150.144988,90.7037925 149.667274,90.9149784 149.255123,90.8911139 C149.142718,90.8815421 148.936645,90.7438288 148.636898,90.4780256 C148.337152,90.2122911 148.093611,90.0435575 147.90627,89.9717682 C147.831333,89.9430525 147.756398,89.9310874 147.681461,89.9358696 C146.519943,89.7919556 145.358443,89.747829 144.196925,89.8032224 C141.424269,89.8716384 138.876462,90.3381069 136.553426,91.2015399 C132.806594,88.3918011 130.764602,86.8586847 130.427387,86.5963285 C128.104351,84.8091866 126.94285,83.7025199 126.94285,83.2738995 L126.94285,46.0830282 C126.94285,45.8522326 127.383097,45.6788499 128.263602,45.5624376 C129.144108,45.4454423 129.790426,45.476249 130.202578,45.6553116 C130.652198,45.8476705 131.551424,46.4227054 132.900283,47.3811633 C134.249143,48.3406172 135.354442,48.9738585 136.216213,49.2801589 C137.340262,49.6796812 138.801505,49.7498768 140.599984,49.488893 C142.24859,49.2057847 143.278954,49.2030141 143.691105,49.4822814 C144.590345,50.0675776 145.929817,51.4195956 147.709562,53.5411262 C149.489307,55.6666902 150.454102,57.076646 150.603975,57.7681196 C150.678912,58.0971231 150.332335,58.4932438 149.564235,58.9558223 C148.796134,59.4175402 148.168549,59.5603949 147.681461,59.3850359 C147.26931,59.2366553 146.969568,59.0785233 146.782226,58.9106568 C146.594884,58.7428189 146.463747,58.6621652 146.388811,58.6686691 C145.039951,58.4507704 143.784781,58.3161668 142.623263,58.2647783 C139.850608,58.0975858 137.808615,58.3242089 136.497224,58.9456492 L136.497224,67.0664537 C137.808615,66.9518904 139.513398,66.964286 141.611624,67.1030198 C142.211117,67.2566609 143.475654,68.4643681 145.405272,70.7296507 C147.334891,72.999503 148.299685,74.4377529 148.299685,75.0410163 C148.299685,75.4096772 148.037411,75.7477025 147.512855,76.0548017 C146.988298,76.3615002 146.482483,76.4907172 145.995395,76.4426828 C145.620712,76.3027537 144.965026,76.0913106 144.028318,75.8082757 C142.604522,75.5100236 140.094182,75.6376392 136.497224,76.1836759 L136.497224,81.414869 C137.621273,81.2436293 139.148085,81.1158813 141.077703,81.0305882 C143.007321,80.9428874 144.196923,80.9829841 144.646542,81.1526851 C145.171099,81.3506696 146.491837,82.5770899 148.608797,84.8355001 C150.725757,87.0986003 151.746754,88.4192374 151.671817,88.7938995 Z M176.513188,88.3019966 C175.988632,88.277014 175.370414,88.1142501 174.658516,87.8138273 C174.396237,87.7157467 173.843588,87.4065862 173.000551,86.8865298 C172.157514,86.3667309 171.454993,86.001976 170.892968,85.7920609 L162.294032,82.5803752 C161.881881,82.4264375 161.3948,82.4222135 160.832775,82.5674779 C160.27075,82.7124417 159.78367,82.6907736 159.371518,82.5027139 C158.622152,82.1546996 158.022668,81.5505468 157.573048,80.6905321 C157.123428,79.8309868 156.692549,78.9873315 156.280397,78.1595037 C155.868246,77.5343398 155.446733,76.8807306 155.015848,76.1986912 C154.584962,75.5169919 154.369523,75.0247659 154.369523,74.7217431 C154.332054,74.1018592 154.538127,73.6223648 154.987747,73.282962 C155.437367,72.9432157 155.943181,72.8260528 156.505206,72.931663 C157.217104,73.2272729 158.416072,73.6852237 160.102147,74.3055021 C161.525943,74.7277385 162.930984,75.1598053 164.317311,75.6017728 C167.314777,76.5339233 169.693979,77.3232873 171.45499,77.970461 C173.553216,78.7415616 174.770918,79.3087272 175.108133,79.6720652 C175.782563,80.3991017 176.382047,81.6124341 176.906603,83.3126196 C177.356223,84.8491531 177.58103,86.1145181 177.58103,87.1080656 C177.58103,87.8960515 177.225086,88.294097 176.513188,88.3019966 Z M209.222867,97.6360618 C209.297803,98.1899345 209.335271,98.7299007 209.335271,99.2559335 C209.335271,102.166649 208.005166,104.803494 205.344915,107.156793 C203.209221,109.034191 200.586478,110.437573 197.476608,111.366017 C194.629015,112.178008 192.699426,112.315937 191.687781,111.785946 C190.563732,111.212682 188.577941,109.676062 185.730348,107.180273 C182.882756,104.690358 181.346578,103.14683 181.121768,102.545366 C181.046832,102.379265 181.009364,102.210354 181.009364,102.038616 C181.009364,101.832531 181.074932,101.591414 181.206072,101.315211 C181.337211,101.038945 181.402779,100.814897 181.402779,100.643109 L181.402779,67.2477116 C181.402779,66.6979904 182.22707,66.7167737 183.875676,67.3040621 C184.625042,67.5710114 185.280728,67.8735002 185.842753,68.2116233 C187.603764,67.8037588 189.823728,67.6684401 192.502713,67.8052764 C195.181698,67.9389064 197.476598,68.3422093 199.387482,69.0176018 C200.511532,69.4148916 201.382657,69.8709663 202.000884,70.3860403 C202.619112,70.901382 203.190495,71.6185937 203.715051,72.537917 C204.389481,73.7906143 204.857828,74.5863525 205.120106,74.9244787 C205.195043,75.0211034 205.813261,75.7136 206.974779,77.003093 C207.649209,77.7694575 208.080088,78.4841583 208.267429,79.1469522 C208.417303,79.6212313 208.492238,80.1037297 208.492238,80.5943931 C208.492238,83.3631369 206.525181,85.6617095 202.591007,87.4762049 C206.600118,91.7788277 208.810715,95.169201 209.222867,97.6360618 Z M199.387482,77.0077292 C199.312546,76.8415507 199.106473,76.6979163 198.769258,76.5768102 C197.907487,76.2673169 196.558648,76.1998157 194.7227,76.3726215 C192.886752,76.5431833 191.650316,76.8934593 191.013355,77.4246078 L191.013355,82.8225401 C193.411327,81.9318445 195.481421,80.8811509 197.223698,79.6715719 C198.965974,78.4572901 199.687229,77.5681261 199.387482,77.0077292 Z M201.410761,93.2155706 C200.436585,92.8893879 198.788004,92.7133867 196.464968,92.6854694 C193.954591,92.6890231 192.137404,92.9303039 191.013355,93.4107918 L191.013355,103.064786 C193.448796,103.367949 195.846732,102.369827 198.207236,100.063768 C200.56774,97.746649 201.635571,95.460997 201.410761,93.2155706 Z M246.878339,128.870517 C246.84087,129.180348 246.765935,129.926026 246.65353,131.107438 C246.616061,131.741321 246.46619,132.169659 246.203912,132.392402 C246.016571,132.427991 245.698095,132.358848 245.248475,132.184991 C244.01202,131.706884 242.475842,130.807627 240.639895,129.488386 C238.654074,128.14876 237.305235,126.948792 236.593337,125.88783 C236.29359,125.450757 235.993848,124.263137 235.694101,122.325417 C235.28195,119.773977 234.813603,117.613435 234.289047,115.843554 C232.86525,115.483637 230.78579,115.186946 228.050603,114.951393 C225.315415,114.712706 223.535697,114.701317 222.711394,114.919105 C222.149369,116.227232 221.400014,117.816166 220.463306,119.684624 C220.350901,120.136287 220.229131,120.557745 220.097992,120.949008 C219.966853,121.340187 219.63901,121.57581 219.114453,121.655787 C219.002048,121.682987 218.833443,121.653145 218.608634,121.566268 C217.709394,121.21876 216.201317,120.195429 214.084357,118.498267 C211.967397,116.803799 210.871465,115.802751 210.796528,115.493095 C210.646655,114.944077 211.002599,113.869393 211.86437,112.267119 C213.063356,109.911543 213.75651,108.450771 213.943851,107.888292 C213.157017,106.852495 212.763605,105.965786 212.763605,105.227507 C212.763605,105.051726 212.782339,104.865414 212.819807,104.668555 C212.894744,104.274805 214.037511,103.947396 216.248141,103.683735 L223.498225,82.9601111 C223.61063,82.5750896 223.629364,81.8022674 223.554427,80.6417643 C223.47949,79.6585285 223.591894,79.0960956 223.89164,78.954291 C224.078982,78.8434562 224.528595,78.9140866 225.240493,79.1662201 C227.001504,79.7899187 229.511843,81.1059928 232.771587,83.1174703 C236.031331,85.132932 237.979654,86.5955991 238.616616,87.5029893 C238.841426,91.5592289 239.68445,97.8298933 241.145715,106.326608 C243.01913,116.862626 244.929986,124.381143 246.878339,128.870517 Z M232.209565,106.982433 C231.722477,104.555849 231.422735,102.966067 231.31033,102.211952 C230.898179,99.6734223 230.61717,97.0952677 230.467297,94.4767679 C229.717931,95.9479577 228.837438,98.0449546 227.825794,100.765862 C226.739213,103.596519 226.158462,105.404194 226.083526,106.192654 C226.795424,106.17433 228.837417,106.438373 232.209565,106.982433 Z M274.192606,135.170015 C273.742986,136.724038 273.031099,137.49764 272.056923,137.491281 C271.757176,137.486405 271.354398,137.350369 270.848576,137.083242 C270.342753,136.816166 269.977443,136.694504 269.752633,136.718187 L261.434708,136.915209 C261.172429,136.92324 260.900788,137.127714 260.619776,137.528519 C260.338763,137.929123 260.067122,138.114984 259.804844,138.086239 C258.980541,138.058008 257.23829,137.111473 254.57804,135.249196 C251.917789,133.390034 250.306675,131.992215 249.744651,131.053788 C249.332499,130.317856 249.201362,129.36538 249.351235,128.195886 C249.426172,127.647132 249.46364,127.21033 249.46364,126.885514 L249.46364,90.5062747 C249.388703,90.1187005 249.238832,89.7586491 249.014022,89.4261412 C248.789212,89.0937135 248.676809,88.8373569 248.676809,88.6570036 C248.751746,87.9982282 249.407431,87.7254445 250.643886,87.8382738 C251.43072,87.9360634 253.135503,88.8106173 255.758286,90.4641156 C258.718283,92.3489839 260.216993,93.8630035 260.254461,95.003664 C260.254461,95.2945878 260.048389,95.6573813 259.636237,96.0918033 C259.224086,96.5258895 259.018013,96.8881372 259.018013,97.1788091 L259.018013,127.317703 L264.863042,127.073506 C265.200256,126.908979 265.837208,126.820935 266.773916,126.809116 C267.298473,126.933851 268.703514,128.240984 270.989081,130.734481 C273.274649,133.233157 274.34248,134.712975 274.192606,135.170015 Z M301.169661,145.447854 C300.720041,147.034163 300.008154,147.827344 299.033977,147.827854 C298.734231,147.825039 298.331452,147.689346 297.82563,147.420845 C297.319808,147.152395 296.954497,147.031077 296.729687,147.056821 L288.411762,147.317729 C288.149484,147.32782 287.877843,147.538134 287.59683,147.948556 C287.315818,148.358777 287.044177,148.550134 286.781898,148.522763 C285.957595,148.500027 284.215345,147.548341 281.555094,145.670263 C278.894843,143.795302 277.28373,142.382713 276.721705,141.430547 C276.309554,140.683624 276.178417,139.713975 276.32829,138.521125 C276.403226,137.961379 276.440694,137.51599 276.440694,137.184992 L276.440694,100.11331 C276.365758,99.7188661 276.215887,99.3529758 275.991077,99.0156593 C275.766267,98.6784229 275.653863,98.4179447 275.653863,98.2341566 C275.7288,97.5623291 276.384486,97.2799283 277.62094,97.386575 C278.407775,97.4809298 280.112558,98.3606358 282.73534,100.027873 C285.695337,101.928541 287.194048,103.461108 287.231516,104.623064 C287.231516,104.919484 287.025443,105.29052 286.613292,105.735934 C286.20114,106.181011 285.995068,106.551502 285.995068,106.847669 L285.995068,137.556386 L291.840096,137.26582 C292.177311,137.095798 292.814263,137.001571 293.750971,136.982883 C294.275527,137.106244 295.680568,138.427974 297.966136,140.95204 C300.251703,143.481286 301.319534,144.981197 301.169661,145.447854 Z" id="path-7"></path>
        <filter x="-2.0%" y="-4.1%" width="105.3%" height="110.8%" filterUnits="objectBoundingBox" id="filter-8">
            <feMorphology radius="1" operator="dilate" in="SourceAlpha" result="shadowSpreadOuter1"></feMorphology>
            <feOffset dx="2" dy="2" in="shadowSpreadOuter1" result="shadowOffsetOuter1"></feOffset>
            <feGaussianBlur stdDeviation="2" in="shadowOffsetOuter1" result="shadowBlurOuter1"></feGaussianBlur>
            <feComposite in="shadowBlurOuter1" in2="SourceAlpha" operator="out" result="shadowBlurOuter1"></feComposite>
            <feColorMatrix values="0 0 0 0 0   0 0 0 0 0   0 0 0 0 0  0 0 0 0.5 0" type="matrix" in="shadowBlurOuter1"></feColorMatrix>
        </filter>
    </defs>
    <g id="Page-1" stroke="none" stroke-width="1" fill="none" fill-rule="evenodd">
        <g id="Logo">
            <g id="Group-2" transform="translate(-50.000000, 14.000000)">
                <rect id="Rectangle-2" fill="#E6E6E6" x="0" y="235" width="786" height="233"></rect>
                <polygon id="Path-2" fill="#B3AFAF" points="39.5078125 45.1914063 39.5078125 0.91796875 427.710938 0.91796875 781.921875 92.4101562 786.560384 393.375 724.328125 393.375 416.695312 88.4296875 168.152344 73.8085938"></polygon>
                <polygon id="Path-3" fill="#8B8B8B" points="719.63219 135.590203 780.922243 135.590203 771.1875 394.816406 723.765725 393.626078 699.039062 351.547725"></polygon>
                <polygon id="Rectangle" fill="#C6C6C6" points="392 29 724 135.59375 724 393.59375 392 247"></polygon>
                <polygon id="Rectangle" fill="#D8D8D8" points="50 32.1171875 393 29.59375 393 247.59375 50 250.117188"></polygon>
            </g>
            <g id="Ball">
                <use fill="#F46707" fill-rule="evenodd" xlink:href="#path-3"></use>
                <use fill="url(#radialGradient-1)" fill-rule="evenodd" style="mix-blend-mode: lighten;" xlink:href="#path-3"></use>
                <use fill-opacity="0.2" fill="url(#radialGradient-2)" fill-rule="evenodd" style="mix-blend-mode: multiply;" xlink:href="#path-3"></use>
                <use stroke="#979797" stroke-width="1" xlink:href="#path-3"></use>
                <use stroke="#979797" stroke-width="1" xlink:href="#path-3"></use>
            </g>
            <g id="Group-Copy" transform="translate(357.000000, 149.000000)">
                <g id="A" fill-opacity="1" fill="black">
                    <use filter="url(#filter-5)" xlink:href="#path-4"></use>
                    <use xlink:href="#path-4"></use>
                </g>
                <g id="MAZE-BALL">
                    <use fill="black" fill-opacity="1" filter="url(#filter-8)" xlink:href="#path-7"></use>
                    <use fill-opacity="0.6" fill="url(#linearGradient-6)" fill-rule="evenodd" style="mix-blend-mode: multiply;" xlink:href="#path-7"></use>
                    <use fill="black" fill-opacity="1" xlink:href="#path-7"></use>
                </g>
            </g>
        </g>
    </g>
</svg>